<?xml version="1.0" encoding="UTF-8"?>
<!DOCTYPE score-partwise PUBLIC "-//Recordare//DTD MusicXML 1.1 Partwise//EN"
                                "http://www.musicxml.org/dtds/partwise.dtd">
<score-partwise version="1.1">
  <movement-title>SONG OF THE BIRD'S NEST.</movement-title>
  <identification>
    <encoding>
      <software>Finale 2008 for Windows</software>
      <software>Dolet Light for Finale 2008</software>
      <encoding-date>2008-04-10</encoding-date>
    </encoding>
  </identification>
  <defaults>
    <scaling>
      <millimeters>7.2319</millimeters>
      <tenths>40</tenths>
    </scaling>
    <page-layout>
      <page-height>1545</page-height>
      <page-width>1194</page-width>
      <page-margins type="both">
        <left-margin>140</left-margin>
        <right-margin>140</right-margin>
        <top-margin>70</top-margin>
        <bottom-margin>70</bottom-margin>
      </page-margins>
    </page-layout>
    <system-layout>
      <system-margins>
        <left-margin>1</left-margin>
        <right-margin>0</right-margin>
      </system-margins>
      <system-distance>158</system-distance>
      <top-system-distance>107</top-system-distance>
    </system-layout>
    <staff-layout>
      <staff-distance>113</staff-distance>
    </staff-layout>
    <music-font font-family="Maestro" font-size="20.5"/>
    <word-font font-family="Times New Roman" font-size="10.25"/>
    <lyric-font font-family="Times New Roman" font-size="10.25" name="verse"/>
  </defaults>
  <credit>
    <credit-words default-x="597" default-y="1458" font-size="18" font-weight="bold" halign="center" valign="top">SONG OF THE BIRD'S NEST.</credit-words>
  </credit>
  <credit>
    <credit-words default-x="604" default-y="1365" font-size="12" font-weight="bold" justify="center" valign="top">Transcribed from Graphophone record, and harmonized by E</credit-words>
    <credit-words font-size="10" font-weight="bold">DWIN</credit-words>
    <credit-words font-size="12" font-weight="bold"> S. T</credit-words>
    <credit-words font-size="10" font-weight="bold">RACY</credit-words>
    <credit-words font-size="12" font-weight="normal">.</credit-words>
    <credit-words font-size="10"> </credit-words>
  </credit>
  <credit>
    <credit-words default-x="561" default-y="1411" font-size="14" font-style="italic" valign="top">Pawnee.</credit-words>
  </credit>
  <credit>
    <credit-words default-x="190" default-y="1308" font-size="12" valign="top">I</credit-words>
    <credit-words font-size="10">NTRODUCTION.</credit-words>
  </credit>
  <part-list>
    <score-part id="P1">
      <part-name print-object="no">MusicXML Part</part-name>
      <score-instrument id="P1-I3">
        <instrument-name>Piano</instrument-name>
      </score-instrument>
      <midi-instrument id="P1-I3">
        <midi-channel>1</midi-channel>
        <midi-program>1</midi-program>
      </midi-instrument>
    </score-part>
  </part-list>
  <!--=========================================================-->
  <part id="P1">
    <measure number="1" width="259">
      <print>
        <system-layout>
          <system-margins>
            <left-margin>1</left-margin>
            <right-margin>1</right-margin>
          </system-margins>
          <top-system-distance>209</top-system-distance>
        </system-layout>
      </print>
      <attributes>
        <divisions>8</divisions>
        <key>
          <fifths>-1</fifths>
          <mode>major</mode>
        </key>
        <time>
          <beats>3</beats>
          <beat-type>8</beat-type>
        </time>
        <staves>2</staves>
        <clef number="1">
          <sign>G</sign>
          <line>2</line>
        </clef>
        <clef number="2">
          <sign>F</sign>
          <line>4</line>
        </clef>
      </attributes>
      <sound tempo="120"/>
      <direction placement="below">
        <direction-type>
          <dynamics default-y="-69">
            <p/>
          </dynamics>
        </direction-type>
        <staff>1</staff>
        <sound dynamics="54"/>
      </direction>
      <direction placement="above">
        <direction-type>
          <bracket default-y="49" line-end="none" line-type="solid" number="1" relative-x="-60" type="start"/>
        </direction-type>
        <staff>1</staff>
      </direction>
      <note default-x="111">
        <pitch>
          <step>A</step>
          <octave>4</octave>
        </pitch>
        <duration>4</duration>
        <voice>1</voice>
        <type>eighth</type>
        <stem default-y="11">up</stem>
        <staff>1</staff>
        <lyric default-y="-114" number="1">
          <syllabic>begin</syllabic>
          <text>Ho</text>
        </lyric>
      </note>
      <note default-x="167">
        <pitch>
          <step>F</step>
          <octave>4</octave>
        </pitch>
        <duration>8</duration>
        <tie type="start"/>
        <voice>1</voice>
        <type>quarter</type>
        <stem default-y="1">up</stem>
        <staff>1</staff>
        <notations>
          <tied orientation="over" type="start"/>
        </notations>
        <lyric default-y="-114" number="1">
          <syllabic>end</syllabic>
          <text>o...</text>
        </lyric>
      </note>
      <backup>
        <duration>12</duration>
      </backup>
      <note default-x="111">
        <pitch>
          <step>A</step>
          <octave>3</octave>
        </pitch>
        <duration>12</duration>
        <tie type="start"/>
        <voice>2</voice>
        <type>quarter</type>
        <dot/>
        <stem default-y="-86">down</stem>
        <staff>1</staff>
        <notations>
          <tied orientation="under" type="start"/>
        </notations>
      </note>
      <note default-x="111">
        <chord/>
        <pitch>
          <step>C</step>
          <octave>4</octave>
        </pitch>
        <duration>12</duration>
        <tie type="start"/>
        <voice>2</voice>
        <type>quarter</type>
        <dot/>
        <stem>down</stem>
        <staff>1</staff>
        <notations>
          <tied orientation="under" type="start"/>
        </notations>
      </note>
      <note default-x="111">
        <chord/>
        <pitch>
          <step>F</step>
          <octave>4</octave>
        </pitch>
        <duration>12</duration>
        <voice>2</voice>
        <type>quarter</type>
        <dot/>
        <stem>down</stem>
        <staff>1</staff>
      </note>
      <backup>
        <duration>12</duration>
      </backup>
      <direction placement="below">
        <direction-type>
          <pedal default-y="-99" line="no" relative-x="-9" type="start"/>
        </direction-type>
        <staff>2</staff>
      </direction>
      <note default-x="111">
        <pitch>
          <step>F</step>
          <octave>2</octave>
        </pitch>
        <duration>12</duration>
        <tie type="start"/>
        <voice>3</voice>
        <type>quarter</type>
        <dot/>
        <stem default-y="-70.5">down</stem>
        <staff>2</staff>
        <notations>
          <tied type="start"/>
        </notations>
      </note>
      <note default-x="111">
        <chord/>
        <pitch>
          <step>C</step>
          <octave>3</octave>
        </pitch>
        <duration>12</duration>
        <tie type="start"/>
        <voice>3</voice>
        <type>quarter</type>
        <dot/>
        <stem>down</stem>
        <staff>2</staff>
        <notations>
          <tied type="start"/>
        </notations>
      </note>
      <note default-x="111">
        <chord/>
        <pitch>
          <step>F</step>
          <octave>3</octave>
        </pitch>
        <duration>12</duration>
        <tie type="start"/>
        <voice>3</voice>
        <type>quarter</type>
        <dot/>
        <stem>down</stem>
        <staff>2</staff>
        <notations>
          <tied type="start"/>
        </notations>
      </note>
    </measure>
    <!--=======================================================-->
    <measure number="2" width="107">
      <note default-x="14">
        <pitch>
          <step>F</step>
          <octave>4</octave>
        </pitch>
        <duration>12</duration>
        <tie type="stop"/>
        <voice>1</voice>
        <type>quarter</type>
        <dot/>
        <stem default-y="1">up</stem>
        <staff>1</staff>
        <notations>
          <tied type="stop"/>
        </notations>
      </note>
      <backup>
        <duration>12</duration>
      </backup>
      <note default-x="14">
        <pitch>
          <step>A</step>
          <octave>3</octave>
        </pitch>
        <duration>12</duration>
        <tie type="stop"/>
        <voice>2</voice>
        <type>quarter</type>
        <dot/>
        <stem default-y="-86">down</stem>
        <staff>1</staff>
        <notations>
          <tied type="stop"/>
        </notations>
      </note>
      <note default-x="14">
        <chord/>
        <pitch>
          <step>C</step>
          <octave>4</octave>
        </pitch>
        <duration>12</duration>
        <tie type="stop"/>
        <voice>2</voice>
        <type>quarter</type>
        <dot/>
        <stem>down</stem>
        <staff>1</staff>
        <notations>
          <tied type="stop"/>
        </notations>
      </note>
      <direction placement="above">
        <direction-type>
          <bracket line-end="down" number="1" type="stop"/>
        </direction-type>
        <offset>-8</offset>
        <staff>1</staff>
      </direction>
      <backup>
        <duration>12</duration>
      </backup>
      <direction placement="below">
        <direction-type>
          <pedal default-y="-94" line="no" relative-x="60" type="stop"/>
        </direction-type>
        <staff>2</staff>
      </direction>
      <note default-x="14">
        <pitch>
          <step>F</step>
          <octave>2</octave>
        </pitch>
        <duration>12</duration>
        <tie type="stop"/>
        <voice>3</voice>
        <type>quarter</type>
        <dot/>
        <stem default-y="-70.5">down</stem>
        <staff>2</staff>
        <notations>
          <tied type="stop"/>
        </notations>
      </note>
      <note default-x="14">
        <chord/>
        <pitch>
          <step>C</step>
          <octave>3</octave>
        </pitch>
        <duration>12</duration>
        <tie type="stop"/>
        <voice>3</voice>
        <type>quarter</type>
        <dot/>
        <stem>down</stem>
        <staff>2</staff>
        <notations>
          <tied type="stop"/>
        </notations>
      </note>
      <note default-x="14">
        <chord/>
        <pitch>
          <step>F</step>
          <octave>3</octave>
        </pitch>
        <duration>12</duration>
        <tie type="stop"/>
        <voice>3</voice>
        <type>quarter</type>
        <dot/>
        <stem>down</stem>
        <staff>2</staff>
        <notations>
          <tied type="stop"/>
        </notations>
      </note>
    </measure>
    <!--=======================================================-->
    <measure number="3" width="140">
      <direction placement="below">
        <direction-type>
          <wedge default-y="-78" spread="0" type="crescendo"/>
        </direction-type>
        <offset>1</offset>
        <staff>1</staff>
      </direction>
      <note default-x="15">
        <pitch>
          <step>C</step>
          <octave>5</octave>
        </pitch>
        <duration>4</duration>
        <voice>1</voice>
        <type>eighth</type>
        <stem default-y="21">up</stem>
        <staff>1</staff>
        <lyric default-y="-114" number="1">
          <syllabic>begin</syllabic>
          <text>Ha</text>
        </lyric>
      </note>
      <note default-x="63">
        <pitch>
          <step>C</step>
          <octave>5</octave>
        </pitch>
        <duration>8</duration>
        <voice>1</voice>
        <type>quarter</type>
        <stem default-y="11">up</stem>
        <staff>1</staff>
        <lyric default-y="-114" number="1">
          <syllabic>end</syllabic>
          <text>re</text>
        </lyric>
      </note>
      <backup>
        <duration>12</duration>
      </backup>
      <note default-x="15">
        <pitch>
          <step>C</step>
          <octave>4</octave>
        </pitch>
        <duration>12</duration>
        <voice>2</voice>
        <type>quarter</type>
        <dot/>
        <stem default-y="-75.5">down</stem>
        <staff>1</staff>
      </note>
      <note default-x="15">
        <chord/>
        <pitch>
          <step>A</step>
          <octave>4</octave>
        </pitch>
        <duration>12</duration>
        <voice>2</voice>
        <type>quarter</type>
        <dot/>
        <stem>down</stem>
        <staff>1</staff>
      </note>
      <direction>
        <direction-type>
          <wedge spread="15" type="stop"/>
        </direction-type>
        <offset>-1</offset>
        <staff>1</staff>
      </direction>
      <backup>
        <duration>12</duration>
      </backup>
      <note default-x="15">
        <pitch>
          <step>F</step>
          <octave>3</octave>
        </pitch>
        <duration>12</duration>
        <voice>3</voice>
        <type>quarter</type>
        <dot/>
        <stem default-y="-45.5">down</stem>
        <staff>2</staff>
      </note>
    </measure>
    <!--=======================================================-->
    <measure number="4" width="137">
      <note default-x="14">
        <pitch>
          <step>G</step>
          <octave>4</octave>
        </pitch>
        <duration>4</duration>
        <voice>1</voice>
        <type>eighth</type>
        <stem default-y="6">up</stem>
        <staff>1</staff>
        <lyric default-y="-114" number="1">
          <syllabic>begin</syllabic>
          <text>ha</text>
        </lyric>
      </note>
      <note default-x="60">
        <pitch>
          <step>G</step>
          <octave>4</octave>
        </pitch>
        <duration>8</duration>
        <voice>1</voice>
        <type>quarter</type>
        <stem default-y="6">up</stem>
        <staff>1</staff>
        <lyric default-y="-114" number="1">
          <syllabic>end</syllabic>
          <text>re</text>
        </lyric>
      </note>
      <backup>
        <duration>12</duration>
      </backup>
      <note default-x="14">
        <pitch>
          <step>C</step>
          <octave>4</octave>
        </pitch>
        <duration>12</duration>
        <voice>2</voice>
        <type>quarter</type>
        <dot/>
        <stem default-y="-75.5">down</stem>
        <staff>1</staff>
      </note>
      <backup>
        <duration>12</duration>
      </backup>
      <note default-x="14">
        <pitch>
          <step>E</step>
          <octave>3</octave>
        </pitch>
        <duration>12</duration>
        <voice>3</voice>
        <type>quarter</type>
        <dot/>
        <stem default-y="-50.5">down</stem>
        <staff>2</staff>
      </note>
    </measure>
    <!--=======================================================-->
    <measure number="5" width="134">
      <direction placement="below">
        <direction-type>
          <wedge default-y="-77" spread="15" type="diminuendo"/>
        </direction-type>
        <offset>2</offset>
        <staff>1</staff>
      </direction>
      <note default-x="14">
        <pitch>
          <step>C</step>
          <octave>5</octave>
        </pitch>
        <duration>8</duration>
        <voice>1</voice>
        <type>quarter</type>
        <stem default-y="11">up</stem>
        <staff>1</staff>
        <lyric default-y="-114" number="1">
          <syllabic>single</syllabic>
          <text>re</text>
        </lyric>
      </note>
      <note default-x="87">
        <pitch>
          <step>C</step>
          <octave>5</octave>
        </pitch>
        <duration>4</duration>
        <voice>1</voice>
        <type>eighth</type>
        <stem default-y="21">up</stem>
        <staff>1</staff>
        <lyric default-y="-114" number="1">
          <syllabic>begin</syllabic>
          <text>ha</text>
        </lyric>
      </note>
      <backup>
        <duration>12</duration>
      </backup>
      <note default-x="14">
        <pitch>
          <step>C</step>
          <octave>4</octave>
        </pitch>
        <duration>12</duration>
        <voice>2</voice>
        <type>quarter</type>
        <dot/>
        <stem default-y="-75.5">down</stem>
        <staff>1</staff>
      </note>
      <note default-x="14">
        <chord/>
        <pitch>
          <step>F</step>
          <octave>4</octave>
        </pitch>
        <duration>12</duration>
        <voice>2</voice>
        <type>quarter</type>
        <dot/>
        <stem>down</stem>
        <staff>1</staff>
      </note>
      <direction>
        <direction-type>
          <wedge spread="0" type="stop"/>
        </direction-type>
        <offset>-1</offset>
        <staff>1</staff>
      </direction>
      <backup>
        <duration>12</duration>
      </backup>
      <note default-x="14">
        <pitch>
          <step>D</step>
          <octave>3</octave>
        </pitch>
        <duration>12</duration>
        <voice>3</voice>
        <type>quarter</type>
        <dot/>
        <stem default-y="-56">down</stem>
        <staff>2</staff>
      </note>
    </measure>
    <!--=======================================================-->
    <measure number="6" width="135">
      <note default-x="14">
        <pitch>
          <step>C</step>
          <octave>5</octave>
        </pitch>
        <duration>4</duration>
        <voice>1</voice>
        <type>eighth</type>
        <stem default-y="21">up</stem>
        <staff>1</staff>
        <lyric default-y="-114" number="1">
          <syllabic>end</syllabic>
          <text>re</text>
        </lyric>
      </note>
      <note default-x="59">
        <rest>
          <display-step>B</display-step>
          <display-octave>4</display-octave>
        </rest>
        <duration>8</duration>
        <voice>1</voice>
        <type>quarter</type>
        <staff>1</staff>
      </note>
      <backup>
        <duration>12</duration>
      </backup>
      <note default-x="14">
        <pitch>
          <step>C</step>
          <octave>4</octave>
        </pitch>
        <duration>4</duration>
        <voice>2</voice>
        <type>eighth</type>
        <stem default-y="-86">down</stem>
        <staff>1</staff>
      </note>
      <note default-x="14">
        <chord/>
        <pitch>
          <step>E</step>
          <octave>4</octave>
        </pitch>
        <duration>4</duration>
        <voice>2</voice>
        <type>eighth</type>
        <stem>down</stem>
        <staff>1</staff>
      </note>
      <note default-x="59">
        <rest>
          <display-step>G</display-step>
          <display-octave>3</display-octave>
        </rest>
        <duration>8</duration>
        <voice>2</voice>
        <type>quarter</type>
        <staff>1</staff>
      </note>
      <backup>
        <duration>12</duration>
      </backup>
      <note default-x="14">
        <pitch>
          <step>C</step>
          <octave>3</octave>
        </pitch>
        <duration>4</duration>
        <voice>3</voice>
        <type>eighth</type>
        <stem default-y="-61">down</stem>
        <staff>2</staff>
      </note>
      <note default-x="14">
        <chord/>
        <pitch>
          <step>G</step>
          <octave>3</octave>
        </pitch>
        <duration>4</duration>
        <voice>3</voice>
        <type>eighth</type>
        <stem>down</stem>
        <staff>2</staff>
      </note>
      <note default-x="59">
        <rest/>
        <duration>8</duration>
        <voice>3</voice>
        <type>quarter</type>
        <staff>2</staff>
      </note>
    </measure>
    <!--=======================================================-->
    <measure number="7" width="200">
      <print new-system="yes">
        <system-layout>
          <system-distance>126</system-distance>
        </system-layout>
      </print>
      <direction placement="below">
        <direction-type>
          <wedge default-y="-70" relative-x="-13" spread="0" type="crescendo"/>
        </direction-type>
        <staff>1</staff>
      </direction>
      <note default-x="82">
        <pitch>
          <step>C</step>
          <octave>4</octave>
        </pitch>
        <duration>4</duration>
        <voice>1</voice>
        <type>eighth</type>
        <stem default-y="21">up</stem>
        <staff>1</staff>
        <lyric default-y="-106" number="1">
          <syllabic>begin</syllabic>
          <text>Ha</text>
        </lyric>
      </note>
      <note default-x="82">
        <chord/>
        <pitch>
          <step>F</step>
          <octave>4</octave>
        </pitch>
        <duration>4</duration>
        <voice>1</voice>
        <type>eighth</type>
        <stem>up</stem>
        <staff>1</staff>
      </note>
      <note default-x="82">
        <chord/>
        <pitch>
          <step>A</step>
          <octave>4</octave>
        </pitch>
        <duration>4</duration>
        <voice>1</voice>
        <type>eighth</type>
        <stem>up</stem>
        <staff>1</staff>
      </note>
      <note default-x="82">
        <chord/>
        <pitch>
          <step>C</step>
          <octave>5</octave>
        </pitch>
        <duration>4</duration>
        <voice>1</voice>
        <type>eighth</type>
        <stem>up</stem>
        <staff>1</staff>
      </note>
      <direction>
        <direction-type>
          <wedge spread="15" type="stop"/>
        </direction-type>
        <offset>3</offset>
        <staff>1</staff>
      </direction>
      <note default-x="126">
        <pitch>
          <step>C</step>
          <octave>4</octave>
        </pitch>
        <duration>8</duration>
        <voice>1</voice>
        <type>quarter</type>
        <stem default-y="11">up</stem>
        <staff>1</staff>
        <lyric default-y="-106" number="1">
          <syllabic>end</syllabic>
          <text>re</text>
        </lyric>
      </note>
      <note default-x="126">
        <chord/>
        <pitch>
          <step>F</step>
          <octave>4</octave>
        </pitch>
        <duration>8</duration>
        <voice>1</voice>
        <type>quarter</type>
        <stem>up</stem>
        <staff>1</staff>
      </note>
      <note default-x="126">
        <chord/>
        <pitch>
          <step>A</step>
          <octave>4</octave>
        </pitch>
        <duration>8</duration>
        <voice>1</voice>
        <type>quarter</type>
        <stem>up</stem>
        <staff>1</staff>
      </note>
      <note default-x="126">
        <chord/>
        <pitch>
          <step>C</step>
          <octave>5</octave>
        </pitch>
        <duration>8</duration>
        <voice>1</voice>
        <type>quarter</type>
        <stem>up</stem>
        <staff>1</staff>
      </note>
      <backup>
        <duration>12</duration>
      </backup>
      <note default-x="82">
        <pitch>
          <step>F</step>
          <octave>3</octave>
        </pitch>
        <duration>4</duration>
        <voice>3</voice>
        <type>eighth</type>
        <stem default-y="-45">down</stem>
        <staff>2</staff>
      </note>
      <note default-x="82">
        <chord/>
        <pitch>
          <step>A</step>
          <octave>3</octave>
        </pitch>
        <duration>4</duration>
        <voice>3</voice>
        <type>eighth</type>
        <stem>down</stem>
        <staff>2</staff>
      </note>
      <note default-x="126">
        <pitch>
          <step>F</step>
          <octave>3</octave>
        </pitch>
        <duration>8</duration>
        <voice>3</voice>
        <type>quarter</type>
        <stem default-y="-45">down</stem>
        <staff>2</staff>
      </note>
      <note default-x="126">
        <chord/>
        <pitch>
          <step>A</step>
          <octave>3</octave>
        </pitch>
        <duration>8</duration>
        <voice>3</voice>
        <type>quarter</type>
        <stem>down</stem>
        <staff>2</staff>
      </note>
    </measure>
    <!--=======================================================-->
    <measure number="8" width="190">
      <note default-x="22">
        <pitch>
          <step>G</step>
          <octave>4</octave>
        </pitch>
        <duration>4</duration>
        <voice>1</voice>
        <type>eighth</type>
        <stem default-y="6">up</stem>
        <staff>1</staff>
        <lyric default-y="-106" number="1">
          <syllabic>begin</syllabic>
          <text>ha</text>
        </lyric>
      </note>
      <note default-x="77">
        <pitch>
          <step>E</step>
          <octave>4</octave>
        </pitch>
        <duration>8</duration>
        <voice>1</voice>
        <type>quarter</type>
        <stem default-y="6">up</stem>
        <staff>1</staff>
        <notations>
          <slur number="1" placement="below" type="start"/>
        </notations>
        <lyric default-y="-106" number="1">
          <syllabic>end</syllabic>
          <text>re</text>
        </lyric>
      </note>
      <note default-x="77">
        <chord/>
        <pitch>
          <step>G</step>
          <octave>4</octave>
        </pitch>
        <duration>8</duration>
        <voice>1</voice>
        <type>quarter</type>
        <stem>up</stem>
        <staff>1</staff>
      </note>
      <note default-x="171">
        <grace/>
        <pitch>
          <step>A</step>
          <octave>4</octave>
        </pitch>
        <voice>1</voice>
        <type>eighth</type>
        <stem default-y="-3">up</stem>
        <staff>1</staff>
        <notations>
          <slur number="1" type="stop"/>
        </notations>
      </note>
      <backup>
        <duration>12</duration>
      </backup>
      <note default-x="33">
        <pitch>
          <step>F</step>
          <octave>4</octave>
        </pitch>
        <duration>4</duration>
        <voice>2</voice>
        <type>eighth</type>
        <stem default-y="-70.5">down</stem>
        <staff>1</staff>
      </note>
      <forward>
        <duration>4</duration>
        <voice>2</voice>
        <staff>1</staff>
      </forward>
      <forward>
        <duration>4</duration>
        <voice>2</voice>
        <staff>1</staff>
      </forward>
      <backup>
        <duration>12</duration>
      </backup>
      <note default-x="22">
        <pitch>
          <step>D</step>
          <octave>3</octave>
        </pitch>
        <duration>4</duration>
        <voice>3</voice>
        <type>eighth</type>
        <stem default-y="-55.5">down</stem>
        <staff>2</staff>
      </note>
      <note default-x="22">
        <chord/>
        <pitch>
          <step>B</step>
          <octave>3</octave>
        </pitch>
        <duration>4</duration>
        <voice>3</voice>
        <type>eighth</type>
        <accidental>natural</accidental>
        <stem>down</stem>
        <staff>2</staff>
      </note>
      <note default-x="77">
        <pitch>
          <step>C</step>
          <octave>3</octave>
        </pitch>
        <duration>8</duration>
        <voice>3</voice>
        <type>quarter</type>
        <stem default-y="-51">down</stem>
        <staff>2</staff>
      </note>
      <note default-x="77">
        <chord/>
        <pitch>
          <step>B</step>
          <alter>-1</alter>
          <octave>3</octave>
        </pitch>
        <duration>8</duration>
        <voice>3</voice>
        <type>quarter</type>
        <accidental>flat</accidental>
        <stem>down</stem>
        <staff>2</staff>
      </note>
    </measure>
    <!--=======================================================-->
    <measure number="9" width="125">
      <note default-x="13">
        <pitch>
          <step>C</step>
          <octave>4</octave>
        </pitch>
        <duration>8</duration>
        <voice>1</voice>
        <type>quarter</type>
        <stem default-y="1">up</stem>
        <staff>1</staff>
        <lyric default-y="-106" number="1">
          <syllabic>single</syllabic>
          <text>e</text>
        </lyric>
      </note>
      <note default-x="13">
        <chord/>
        <pitch>
          <step>F</step>
          <octave>4</octave>
        </pitch>
        <duration>8</duration>
        <voice>1</voice>
        <type>quarter</type>
        <stem>up</stem>
        <staff>1</staff>
      </note>
      <direction placement="below">
        <direction-type>
          <wedge default-y="-67" spread="15" type="diminuendo"/>
        </direction-type>
        <staff>1</staff>
      </direction>
      <note default-x="82">
        <pitch>
          <step>C</step>
          <octave>4</octave>
        </pitch>
        <duration>4</duration>
        <voice>1</voice>
        <type>eighth</type>
        <stem default-y="1">up</stem>
        <staff>1</staff>
        <lyric default-y="-106" number="1">
          <syllabic>begin</syllabic>
          <text>ha</text>
        </lyric>
      </note>
      <note default-x="82">
        <chord/>
        <pitch>
          <step>F</step>
          <octave>4</octave>
        </pitch>
        <duration>4</duration>
        <voice>1</voice>
        <type>eighth</type>
        <stem>up</stem>
        <staff>1</staff>
      </note>
      <backup>
        <duration>12</duration>
      </backup>
      <note default-x="13">
        <pitch>
          <step>F</step>
          <octave>3</octave>
        </pitch>
        <duration>8</duration>
        <voice>3</voice>
        <type>quarter</type>
        <stem default-y="-45">down</stem>
        <staff>2</staff>
      </note>
      <note default-x="13">
        <chord/>
        <pitch>
          <step>A</step>
          <octave>3</octave>
        </pitch>
        <duration>8</duration>
        <voice>3</voice>
        <type>quarter</type>
        <stem>down</stem>
        <staff>2</staff>
      </note>
      <note default-x="82">
        <pitch>
          <step>F</step>
          <octave>3</octave>
        </pitch>
        <duration>4</duration>
        <voice>3</voice>
        <type>eighth</type>
        <stem default-y="-45">down</stem>
        <staff>2</staff>
      </note>
      <note default-x="82">
        <chord/>
        <pitch>
          <step>A</step>
          <octave>3</octave>
        </pitch>
        <duration>4</duration>
        <voice>3</voice>
        <type>eighth</type>
        <stem>down</stem>
        <staff>2</staff>
      </note>
    </measure>
    <!--=======================================================-->
    <measure number="10" width="125">
      <direction>
        <direction-type>
          <wedge spread="0" type="stop"/>
        </direction-type>
        <offset>3</offset>
        <staff>1</staff>
      </direction>
      <note default-x="14">
        <pitch>
          <step>C</step>
          <octave>4</octave>
        </pitch>
        <duration>4</duration>
        <voice>1</voice>
        <type>eighth</type>
        <stem default-y="1">up</stem>
        <staff>1</staff>
        <lyric default-y="-106" number="1">
          <syllabic>end</syllabic>
          <text>re</text>
        </lyric>
      </note>
      <note default-x="14">
        <chord/>
        <pitch>
          <step>F</step>
          <octave>4</octave>
        </pitch>
        <duration>4</duration>
        <voice>1</voice>
        <type>eighth</type>
        <stem>up</stem>
        <staff>1</staff>
      </note>
      <note default-x="56">
        <rest/>
        <duration>8</duration>
        <voice>1</voice>
        <type>quarter</type>
        <staff>1</staff>
      </note>
      <backup>
        <duration>12</duration>
      </backup>
      <note default-x="14">
        <pitch>
          <step>F</step>
          <octave>3</octave>
        </pitch>
        <duration>4</duration>
        <voice>3</voice>
        <type>eighth</type>
        <stem default-y="-45">down</stem>
        <staff>2</staff>
      </note>
      <note default-x="14">
        <chord/>
        <pitch>
          <step>A</step>
          <octave>3</octave>
        </pitch>
        <duration>4</duration>
        <voice>3</voice>
        <type>eighth</type>
        <stem>down</stem>
        <staff>2</staff>
      </note>
      <note default-x="56">
        <rest/>
        <duration>8</duration>
        <voice>3</voice>
        <type>quarter</type>
        <staff>2</staff>
      </note>
    </measure>
    <!--=======================================================-->
    <measure number="11" width="128">
      <note default-x="15">
        <pitch>
          <step>A</step>
          <octave>4</octave>
        </pitch>
        <duration>4</duration>
        <voice>1</voice>
        <type>eighth</type>
        <stem default-y="11">up</stem>
        <staff>1</staff>
        <notations>
          <slur bezier-x="8" bezier-y="-10" default-x="8" default-y="-33" number="1" placement="below" type="start"/>
        </notations>
        <lyric default-y="-106" number="1">
          <syllabic>single</syllabic>
          <text>Re</text>
        </lyric>
      </note>
      <note default-x="58">
        <pitch>
          <step>F</step>
          <octave>4</octave>
        </pitch>
        <duration>8</duration>
        <voice>1</voice>
        <type>quarter</type>
        <stem default-y="1">up</stem>
        <staff>1</staff>
        <notations>
          <slur bezier-x="-12" bezier-y="-5" default-x="1" default-y="-43" number="1" type="stop"/>
        </notations>
      </note>
      <backup>
        <duration>12</duration>
      </backup>
      <note default-x="15">
        <pitch>
          <step>C</step>
          <octave>4</octave>
        </pitch>
        <duration>12</duration>
        <voice>2</voice>
        <type>quarter</type>
        <dot/>
        <stem default-y="-76">down</stem>
        <staff>1</staff>
      </note>
      <backup>
        <duration>12</duration>
      </backup>
      <note default-x="15">
        <pitch>
          <step>F</step>
          <octave>3</octave>
        </pitch>
        <duration>12</duration>
        <voice>3</voice>
        <type>quarter</type>
        <dot/>
        <stem default-y="-45">down</stem>
        <staff>2</staff>
      </note>
      <note default-x="15">
        <chord/>
        <pitch>
          <step>A</step>
          <octave>3</octave>
        </pitch>
        <duration>12</duration>
        <voice>3</voice>
        <type>quarter</type>
        <dot/>
        <stem>down</stem>
        <staff>2</staff>
      </note>
    </measure>
    <!--=======================================================-->
    <measure number="12" width="144">
      <note default-x="22">
        <pitch>
          <step>E</step>
          <alter>-1</alter>
          <octave>4</octave>
        </pitch>
        <duration>4</duration>
        <voice>1</voice>
        <type>eighth</type>
        <accidental>flat</accidental>
        <stem default-y="-4">up</stem>
        <staff>1</staff>
        <lyric default-y="-106" number="1">
          <syllabic>begin</syllabic>
          <text>wha</text>
        </lyric>
      </note>
      <note default-x="68">
        <pitch>
          <step>E</step>
          <alter>-1</alter>
          <octave>4</octave>
        </pitch>
        <duration>8</duration>
        <voice>1</voice>
        <type>quarter</type>
        <stem default-y="-4">up</stem>
        <staff>1</staff>
        <lyric default-y="-106" number="1">
          <syllabic>end</syllabic>
          <text>ka</text>
        </lyric>
      </note>
      <backup>
        <duration>12</duration>
      </backup>
      <note default-x="22">
        <pitch>
          <step>C</step>
          <octave>4</octave>
        </pitch>
        <duration>12</duration>
        <voice>2</voice>
        <type>quarter</type>
        <dot/>
        <stem default-y="-76">down</stem>
        <staff>1</staff>
      </note>
      <backup>
        <duration>12</duration>
      </backup>
      <note default-x="22">
        <pitch>
          <step>C</step>
          <octave>3</octave>
        </pitch>
        <duration>12</duration>
        <voice>3</voice>
        <type>quarter</type>
        <dot/>
        <stem default-y="-51">down</stem>
        <staff>2</staff>
      </note>
      <note default-x="22">
        <chord/>
        <pitch>
          <step>G</step>
          <octave>3</octave>
        </pitch>
        <duration>12</duration>
        <voice>3</voice>
        <type>quarter</type>
        <dot/>
        <stem>down</stem>
        <staff>2</staff>
      </note>
    </measure>
    <!--=======================================================-->
    <measure number="13" width="201">
      <print new-system="yes">
        <system-layout>
          <system-margins>
            <left-margin>0</left-margin>
            <right-margin>0</right-margin>
          </system-margins>
          <system-distance>125</system-distance>
        </system-layout>
      </print>
      <note default-x="88">
        <pitch>
          <step>F</step>
          <octave>4</octave>
        </pitch>
        <duration>4</duration>
        <voice>1</voice>
        <type>eighth</type>
        <stem default-y="0.5">up</stem>
        <staff>1</staff>
        <lyric default-y="-120" number="1">
          <syllabic>begin</syllabic>
          <text>ha</text>
        </lyric>
      </note>
      <note default-x="131">
        <pitch>
          <step>F</step>
          <octave>4</octave>
        </pitch>
        <duration>8</duration>
        <voice>1</voice>
        <type>quarter</type>
        <stem default-y="0.5">up</stem>
        <staff>1</staff>
        <lyric default-y="-120" number="1">
          <syllabic>end</syllabic>
          <text>re</text>
        </lyric>
      </note>
      <backup>
        <duration>12</duration>
      </backup>
      <note default-x="88">
        <pitch>
          <step>A</step>
          <alter>-1</alter>
          <octave>3</octave>
        </pitch>
        <duration>12</duration>
        <voice>2</voice>
        <type>quarter</type>
        <dot/>
        <accidental>flat</accidental>
        <stem default-y="-86">down</stem>
        <staff>1</staff>
      </note>
      <note default-x="88">
        <chord/>
        <pitch>
          <step>D</step>
          <octave>4</octave>
        </pitch>
        <duration>12</duration>
        <voice>2</voice>
        <type>quarter</type>
        <dot/>
        <stem>down</stem>
        <staff>1</staff>
      </note>
      <backup>
        <duration>12</duration>
      </backup>
      <note default-x="88">
        <pitch>
          <step>B</step>
          <alter>-1</alter>
          <octave>2</octave>
        </pitch>
        <duration>12</duration>
        <voice>3</voice>
        <type>quarter</type>
        <dot/>
        <stem default-y="-56">down</stem>
        <staff>2</staff>
      </note>
      <note default-x="88">
        <chord/>
        <pitch>
          <step>F</step>
          <octave>3</octave>
        </pitch>
        <duration>12</duration>
        <voice>3</voice>
        <type>quarter</type>
        <dot/>
        <stem>down</stem>
        <staff>2</staff>
      </note>
    </measure>
    <!--=======================================================-->
    <measure number="14" width="167">
      <note default-x="22">
        <pitch>
          <step>F</step>
          <octave>4</octave>
        </pitch>
        <duration>4</duration>
        <voice>1</voice>
        <type>eighth</type>
        <stem default-y="-5">up</stem>
        <staff>1</staff>
        <beam number="1">begin</beam>
        <notations>
          <slur bezier-x="14" bezier-y="11" default-x="14" default-y="3" number="1" placement="above" type="start"/>
        </notations>
        <lyric default-y="-120" number="1">
          <syllabic>single</syllabic>
          <text>re</text>
        </lyric>
      </note>
      <note default-x="70">
        <pitch>
          <step>E</step>
          <alter>-1</alter>
          <octave>4</octave>
        </pitch>
        <duration>4</duration>
        <voice>1</voice>
        <type>eighth</type>
        <accidental>flat</accidental>
        <stem default-y="-7">up</stem>
        <staff>1</staff>
        <beam number="1">end</beam>
        <notations>
          <slur bezier-x="-13" bezier-y="12" default-x="12" default-y="1" number="1" type="stop"/>
        </notations>
      </note>
      <note default-x="118">
        <pitch>
          <step>F</step>
          <octave>4</octave>
        </pitch>
        <duration>4</duration>
        <voice>1</voice>
        <type>eighth</type>
        <stem default-y="0.5">up</stem>
        <staff>1</staff>
        <lyric default-y="-120" number="1">
          <syllabic>begin</syllabic>
          <text>ha</text>
        </lyric>
      </note>
      <backup>
        <duration>12</duration>
      </backup>
      <note default-x="22">
        <pitch>
          <step>G</step>
          <octave>3</octave>
        </pitch>
        <duration>12</duration>
        <voice>2</voice>
        <type>quarter</type>
        <dot/>
        <stem default-y="-90.5">down</stem>
        <staff>1</staff>
      </note>
      <note default-x="22">
        <chord/>
        <pitch>
          <step>B</step>
          <alter>-1</alter>
          <octave>3</octave>
        </pitch>
        <duration>12</duration>
        <voice>2</voice>
        <type>quarter</type>
        <dot/>
        <stem>down</stem>
        <staff>1</staff>
      </note>
      <backup>
        <duration>12</duration>
      </backup>
      <note default-x="22">
        <pitch>
          <step>E</step>
          <alter>-1</alter>
          <octave>2</octave>
        </pitch>
        <duration>12</duration>
        <voice>3</voice>
        <type>quarter</type>
        <dot/>
        <accidental>flat</accidental>
        <stem default-y="11">up</stem>
        <staff>2</staff>
      </note>
      <note default-x="22">
        <chord/>
        <pitch>
          <step>B</step>
          <alter>-1</alter>
          <octave>2</octave>
        </pitch>
        <duration>12</duration>
        <voice>3</voice>
        <type>quarter</type>
        <dot/>
        <stem>up</stem>
        <staff>2</staff>
      </note>
      <note default-x="22">
        <chord/>
        <pitch>
          <step>E</step>
          <alter>-1</alter>
          <octave>3</octave>
        </pitch>
        <duration>12</duration>
        <voice>3</voice>
        <type>quarter</type>
        <dot/>
        <accidental>flat</accidental>
        <stem>up</stem>
        <staff>2</staff>
      </note>
    </measure>
    <!--=======================================================-->
    <measure number="15" width="132">
      <note default-x="22">
        <pitch>
          <step>E</step>
          <alter>-1</alter>
          <octave>4</octave>
        </pitch>
        <duration>4</duration>
        <voice>1</voice>
        <type>eighth</type>
        <accidental>flat</accidental>
        <stem default-y="-4">up</stem>
        <staff>1</staff>
        <lyric default-y="-120" number="1">
          <syllabic>end</syllabic>
          <text>re,</text>
        </lyric>
      </note>
      <note default-x="64">
        <rest>
          <display-step>B</display-step>
          <display-octave>4</display-octave>
        </rest>
        <duration>8</duration>
        <voice>1</voice>
        <type>quarter</type>
        <staff>1</staff>
      </note>
      <backup>
        <duration>12</duration>
      </backup>
      <note default-x="22">
        <pitch>
          <step>G</step>
          <octave>3</octave>
        </pitch>
        <duration>4</duration>
        <voice>2</voice>
        <type>eighth</type>
        <stem default-y="-101">down</stem>
        <staff>1</staff>
      </note>
      <note default-x="22">
        <chord/>
        <pitch>
          <step>B</step>
          <alter>-1</alter>
          <octave>3</octave>
        </pitch>
        <duration>4</duration>
        <voice>2</voice>
        <type>eighth</type>
        <stem>down</stem>
        <staff>1</staff>
      </note>
      <note default-x="64">
        <rest>
          <display-step>F</display-step>
          <display-octave>3</display-octave>
        </rest>
        <duration>8</duration>
        <voice>2</voice>
        <type>quarter</type>
        <staff>1</staff>
      </note>
      <backup>
        <duration>12</duration>
      </backup>
      <note default-x="22">
        <pitch>
          <step>E</step>
          <alter>-1</alter>
          <octave>2</octave>
        </pitch>
        <duration>4</duration>
        <voice>3</voice>
        <type>eighth</type>
        <accidental>flat</accidental>
        <stem default-y="21">up</stem>
        <staff>2</staff>
      </note>
      <note default-x="22">
        <chord/>
        <pitch>
          <step>B</step>
          <alter>-1</alter>
          <octave>2</octave>
        </pitch>
        <duration>4</duration>
        <voice>3</voice>
        <type>eighth</type>
        <stem>up</stem>
        <staff>2</staff>
      </note>
      <note default-x="22">
        <chord/>
        <pitch>
          <step>E</step>
          <alter>-1</alter>
          <octave>3</octave>
        </pitch>
        <duration>4</duration>
        <voice>3</voice>
        <type>eighth</type>
        <accidental>flat</accidental>
        <stem>up</stem>
        <staff>2</staff>
      </note>
      <note default-x="64">
        <rest/>
        <duration>8</duration>
        <voice>3</voice>
        <type>quarter</type>
        <staff>2</staff>
      </note>
    </measure>
    <!--=======================================================-->
    <measure number="16" width="139">
      <direction placement="below">
        <direction-type>
          <wedge default-y="-81" spread="0" type="crescendo"/>
        </direction-type>
        <offset>1</offset>
        <staff>1</staff>
      </direction>
      <note default-x="22">
        <pitch>
          <step>E</step>
          <alter>-1</alter>
          <octave>4</octave>
        </pitch>
        <duration>4</duration>
        <voice>1</voice>
        <type>eighth</type>
        <accidental>flat</accidental>
        <stem default-y="-4">up</stem>
        <staff>1</staff>
        <lyric default-y="-120" number="1">
          <syllabic>begin</syllabic>
          <text>wha</text>
        </lyric>
      </note>
      <note default-x="66">
        <pitch>
          <step>E</step>
          <alter>-1</alter>
          <octave>4</octave>
        </pitch>
        <duration>8</duration>
        <voice>1</voice>
        <type>quarter</type>
        <stem default-y="-4">up</stem>
        <staff>1</staff>
        <lyric default-y="-120" number="1">
          <syllabic>end</syllabic>
          <text>ka</text>
        </lyric>
      </note>
      <backup>
        <duration>12</duration>
      </backup>
      <note default-x="22">
        <pitch>
          <step>G</step>
          <octave>3</octave>
        </pitch>
        <duration>12</duration>
        <voice>2</voice>
        <type>quarter</type>
        <dot/>
        <stem default-y="-90.5">down</stem>
        <staff>1</staff>
      </note>
      <note default-x="22">
        <chord/>
        <pitch>
          <step>B</step>
          <alter>-1</alter>
          <octave>3</octave>
        </pitch>
        <duration>12</duration>
        <voice>2</voice>
        <type>quarter</type>
        <dot/>
        <stem>down</stem>
        <staff>1</staff>
      </note>
      <direction>
        <direction-type>
          <wedge spread="15" type="stop"/>
        </direction-type>
        <offset>-1</offset>
        <staff>1</staff>
      </direction>
      <backup>
        <duration>12</duration>
      </backup>
      <note default-x="22">
        <pitch>
          <step>E</step>
          <alter>-1</alter>
          <octave>3</octave>
        </pitch>
        <duration>12</duration>
        <voice>3</voice>
        <type>quarter</type>
        <dot/>
        <accidental>flat</accidental>
        <stem default-y="-50.5">down</stem>
        <staff>2</staff>
      </note>
    </measure>
    <!--=======================================================-->
    <measure number="17" width="121">
      <note default-x="14">
        <pitch>
          <step>F</step>
          <octave>4</octave>
        </pitch>
        <duration>4</duration>
        <voice>1</voice>
        <type>eighth</type>
        <stem default-y="0.5">up</stem>
        <staff>1</staff>
        <lyric default-y="-120" number="1">
          <syllabic>begin</syllabic>
          <text>ha</text>
        </lyric>
      </note>
      <note default-x="54">
        <pitch>
          <step>F</step>
          <octave>4</octave>
        </pitch>
        <duration>8</duration>
        <voice>1</voice>
        <type>quarter</type>
        <stem default-y="0.5">up</stem>
        <staff>1</staff>
        <lyric default-y="-120" number="1">
          <syllabic>end</syllabic>
          <text>re</text>
        </lyric>
      </note>
      <backup>
        <duration>12</duration>
      </backup>
      <note default-x="14">
        <pitch>
          <step>G</step>
          <octave>3</octave>
        </pitch>
        <duration>12</duration>
        <voice>2</voice>
        <type>quarter</type>
        <dot/>
        <stem default-y="-90.5">down</stem>
        <staff>1</staff>
      </note>
      <note default-x="14">
        <chord/>
        <pitch>
          <step>B</step>
          <alter>-1</alter>
          <octave>3</octave>
        </pitch>
        <duration>12</duration>
        <voice>2</voice>
        <type>quarter</type>
        <dot/>
        <stem>down</stem>
        <staff>1</staff>
      </note>
      <backup>
        <duration>12</duration>
      </backup>
      <note default-x="14">
        <pitch>
          <step>D</step>
          <octave>3</octave>
        </pitch>
        <duration>12</duration>
        <voice>3</voice>
        <type>quarter</type>
        <dot/>
        <stem default-y="-56">down</stem>
        <staff>2</staff>
      </note>
    </measure>
    <!--=======================================================-->
    <measure number="18" width="153">
      <note default-x="13">
        <pitch>
          <step>F</step>
          <octave>4</octave>
        </pitch>
        <duration>4</duration>
        <voice>1</voice>
        <type>eighth</type>
        <stem default-y="-5">up</stem>
        <staff>1</staff>
        <beam number="1">begin</beam>
        <notations>
          <slur bezier-x="14" bezier-y="10" default-x="15" default-y="4" number="1" placement="above" type="start"/>
        </notations>
        <lyric default-y="-120" number="1">
          <syllabic>single</syllabic>
          <text>re</text>
        </lyric>
      </note>
      <direction placement="below">
        <direction-type>
          <wedge default-y="-83" spread="15" type="diminuendo"/>
        </direction-type>
        <offset>-1</offset>
        <staff>1</staff>
      </direction>
      <note default-x="60">
        <pitch>
          <step>E</step>
          <alter>-1</alter>
          <octave>4</octave>
        </pitch>
        <duration>4</duration>
        <voice>1</voice>
        <type>eighth</type>
        <accidental>flat</accidental>
        <stem default-y="-7">up</stem>
        <staff>1</staff>
        <beam number="1">end</beam>
        <notations>
          <slur bezier-x="-12" bezier-y="12" default-x="13" default-y="1" number="1" type="stop"/>
        </notations>
      </note>
      <note default-x="106">
        <pitch>
          <step>F</step>
          <octave>4</octave>
        </pitch>
        <duration>4</duration>
        <voice>1</voice>
        <type>eighth</type>
        <stem default-y="0.5">up</stem>
        <staff>1</staff>
        <lyric default-y="-120" number="1">
          <syllabic>begin</syllabic>
          <text>ha</text>
        </lyric>
      </note>
      <backup>
        <duration>12</duration>
      </backup>
      <note default-x="13">
        <pitch>
          <step>G</step>
          <octave>3</octave>
        </pitch>
        <duration>12</duration>
        <voice>2</voice>
        <type>quarter</type>
        <dot/>
        <stem default-y="-90.5">down</stem>
        <staff>1</staff>
      </note>
      <note default-x="13">
        <chord/>
        <pitch>
          <step>B</step>
          <alter>-1</alter>
          <octave>3</octave>
        </pitch>
        <duration>12</duration>
        <voice>2</voice>
        <type>quarter</type>
        <dot/>
        <stem>down</stem>
        <staff>1</staff>
      </note>
      <direction>
        <direction-type>
          <wedge relative-x="-10" spread="0" type="stop"/>
        </direction-type>
        <staff>1</staff>
      </direction>
      <backup>
        <duration>12</duration>
      </backup>
      <note default-x="13">
        <pitch>
          <step>C</step>
          <octave>3</octave>
        </pitch>
        <duration>12</duration>
        <voice>3</voice>
        <type>quarter</type>
        <dot/>
        <stem default-y="11">up</stem>
        <staff>2</staff>
      </note>
    </measure>
    <!--=======================================================-->
    <measure number="19" width="166">
      <print new-system="yes">
        <system-layout>
          <system-distance>127</system-distance>
        </system-layout>
      </print>
      <note default-x="80">
        <pitch>
          <step>A</step>
          <octave>3</octave>
        </pitch>
        <duration>12</duration>
        <voice>1</voice>
        <type>quarter</type>
        <dot/>
        <stem default-y="1">up</stem>
        <staff>1</staff>
        <lyric default-y="-120" number="1">
          <syllabic>end</syllabic>
          <text>re</text>
        </lyric>
      </note>
      <note default-x="80">
        <chord/>
        <pitch>
          <step>F</step>
          <octave>4</octave>
        </pitch>
        <duration>12</duration>
        <voice>1</voice>
        <type>quarter</type>
        <dot/>
        <stem>up</stem>
        <staff>1</staff>
      </note>
      <backup>
        <duration>12</duration>
      </backup>
      <note default-x="80">
        <pitch>
          <step>F</step>
          <octave>3</octave>
        </pitch>
        <duration>12</duration>
        <voice>3</voice>
        <type>quarter</type>
        <dot/>
        <stem default-y="-45.5">down</stem>
        <staff>2</staff>
      </note>
    </measure>
    <!--=======================================================-->
    <measure number="20" width="127">
      <note default-x="14">
        <pitch>
          <step>A</step>
          <octave>4</octave>
        </pitch>
        <duration>4</duration>
        <voice>1</voice>
        <type>eighth</type>
        <stem default-y="11">up</stem>
        <staff>1</staff>
        <notations>
          <slur number="1" placement="below" type="start"/>
        </notations>
        <lyric default-y="-120" number="1">
          <syllabic>single</syllabic>
          <text>Re</text>
        </lyric>
      </note>
      <note default-x="57">
        <pitch>
          <step>F</step>
          <octave>4</octave>
        </pitch>
        <duration>8</duration>
        <voice>1</voice>
        <type>quarter</type>
        <stem default-y="1">up</stem>
        <staff>1</staff>
        <notations>
          <slur number="1" type="stop"/>
        </notations>
      </note>
      <backup>
        <duration>12</duration>
      </backup>
      <note default-x="14">
        <pitch>
          <step>C</step>
          <octave>4</octave>
        </pitch>
        <duration>12</duration>
        <voice>2</voice>
        <type>quarter</type>
        <dot/>
        <stem default-y="-75.5">down</stem>
        <staff>1</staff>
      </note>
      <backup>
        <duration>12</duration>
      </backup>
      <note default-x="14">
        <pitch>
          <step>F</step>
          <octave>3</octave>
        </pitch>
        <duration>12</duration>
        <voice>3</voice>
        <type>quarter</type>
        <dot/>
        <stem default-y="-45.5">down</stem>
        <staff>2</staff>
      </note>
      <note default-x="14">
        <chord/>
        <pitch>
          <step>A</step>
          <octave>3</octave>
        </pitch>
        <duration>12</duration>
        <voice>3</voice>
        <type>quarter</type>
        <dot/>
        <stem>down</stem>
        <staff>2</staff>
      </note>
    </measure>
    <!--=======================================================-->
    <measure number="21" width="158">
      <note default-x="22">
        <pitch>
          <step>E</step>
          <alter>-1</alter>
          <octave>4</octave>
        </pitch>
        <duration>4</duration>
        <voice>1</voice>
        <type>eighth</type>
        <accidental>flat</accidental>
        <stem default-y="-4">up</stem>
        <staff>1</staff>
        <lyric default-y="-120" number="1">
          <syllabic>begin</syllabic>
          <text>wha</text>
        </lyric>
      </note>
      <note default-x="70">
        <pitch>
          <step>E</step>
          <alter>-1</alter>
          <octave>4</octave>
        </pitch>
        <duration>8</duration>
        <voice>1</voice>
        <type>quarter</type>
        <stem default-y="-4">up</stem>
        <staff>1</staff>
        <lyric default-y="-120" number="1">
          <syllabic>end</syllabic>
          <text>ka</text>
        </lyric>
      </note>
      <backup>
        <duration>12</duration>
      </backup>
      <note default-x="22">
        <pitch>
          <step>C</step>
          <octave>4</octave>
        </pitch>
        <duration>8</duration>
        <voice>2</voice>
        <type>quarter</type>
        <stem default-y="-75.5">down</stem>
        <staff>1</staff>
      </note>
      <backup>
        <duration>8</duration>
      </backup>
      <note default-x="22">
        <pitch>
          <step>C</step>
          <octave>3</octave>
        </pitch>
        <duration>12</duration>
        <voice>3</voice>
        <type>quarter</type>
        <dot/>
        <stem default-y="-50.5">down</stem>
        <staff>2</staff>
      </note>
      <note default-x="22">
        <chord/>
        <pitch>
          <step>G</step>
          <octave>3</octave>
        </pitch>
        <duration>12</duration>
        <voice>3</voice>
        <type>quarter</type>
        <dot/>
        <stem>down</stem>
        <staff>2</staff>
      </note>
    </measure>
    <!--=======================================================-->
    <measure number="22" width="140">
      <note default-x="22">
        <pitch>
          <step>F</step>
          <octave>4</octave>
        </pitch>
        <duration>4</duration>
        <voice>1</voice>
        <type>eighth</type>
        <stem default-y="1">up</stem>
        <staff>1</staff>
        <lyric default-y="-120" number="1">
          <syllabic>begin</syllabic>
          <text>ha</text>
        </lyric>
      </note>
      <note default-x="66">
        <pitch>
          <step>F</step>
          <octave>4</octave>
        </pitch>
        <duration>8</duration>
        <voice>1</voice>
        <type>quarter</type>
        <stem default-y="1">up</stem>
        <staff>1</staff>
        <lyric default-y="-120" number="1">
          <syllabic>end</syllabic>
          <text>re</text>
        </lyric>
      </note>
      <backup>
        <duration>12</duration>
      </backup>
      <note default-x="22">
        <pitch>
          <step>A</step>
          <alter>-1</alter>
          <octave>3</octave>
        </pitch>
        <duration>12</duration>
        <voice>2</voice>
        <type>quarter</type>
        <dot/>
        <accidental>flat</accidental>
        <stem default-y="-86">down</stem>
        <staff>1</staff>
      </note>
      <note default-x="22">
        <chord/>
        <pitch>
          <step>D</step>
          <octave>4</octave>
        </pitch>
        <duration>12</duration>
        <voice>2</voice>
        <type>quarter</type>
        <dot/>
        <stem>down</stem>
        <staff>1</staff>
      </note>
      <backup>
        <duration>12</duration>
      </backup>
      <note default-x="22">
        <pitch>
          <step>B</step>
          <alter>-1</alter>
          <octave>2</octave>
        </pitch>
        <duration>12</duration>
        <voice>3</voice>
        <type>quarter</type>
        <dot/>
        <stem default-y="-55">down</stem>
        <staff>2</staff>
      </note>
      <note default-x="22">
        <chord/>
        <pitch>
          <step>F</step>
          <octave>3</octave>
        </pitch>
        <duration>12</duration>
        <voice>3</voice>
        <type>quarter</type>
        <dot/>
        <stem>down</stem>
        <staff>2</staff>
      </note>
    </measure>
    <!--=======================================================-->
    <measure number="23" width="175">
      <note default-x="22">
        <pitch>
          <step>F</step>
          <octave>4</octave>
        </pitch>
        <duration>4</duration>
        <voice>1</voice>
        <type>eighth</type>
        <stem default-y="-5">up</stem>
        <staff>1</staff>
        <beam number="1">begin</beam>
        <notations>
          <slur bezier-x="15" bezier-y="10" default-x="14" default-y="4" number="1" placement="above" type="start"/>
        </notations>
        <lyric default-y="-120" number="1">
          <syllabic>single</syllabic>
          <text>re</text>
        </lyric>
      </note>
      <note default-x="72">
        <pitch>
          <step>E</step>
          <alter>-1</alter>
          <octave>4</octave>
        </pitch>
        <duration>4</duration>
        <voice>1</voice>
        <type>eighth</type>
        <accidental>flat</accidental>
        <stem default-y="-7">up</stem>
        <staff>1</staff>
        <beam number="1">end</beam>
        <notations>
          <slur bezier-x="-13" bezier-y="12" default-x="12" default-y="1" number="1" type="stop"/>
        </notations>
      </note>
      <note default-x="123">
        <pitch>
          <step>E</step>
          <alter>-1</alter>
          <octave>4</octave>
        </pitch>
        <duration>4</duration>
        <voice>1</voice>
        <type>eighth</type>
        <stem default-y="-4">up</stem>
        <staff>1</staff>
        <lyric default-y="-120" number="1">
          <syllabic>begin</syllabic>
          <text>ha</text>
        </lyric>
      </note>
      <backup>
        <duration>12</duration>
      </backup>
      <note default-x="22">
        <pitch>
          <step>G</step>
          <octave>3</octave>
        </pitch>
        <duration>12</duration>
        <voice>2</voice>
        <type>quarter</type>
        <dot/>
        <stem default-y="-91">down</stem>
        <staff>1</staff>
      </note>
      <note default-x="22">
        <chord/>
        <pitch>
          <step>B</step>
          <alter>-1</alter>
          <octave>3</octave>
        </pitch>
        <duration>12</duration>
        <voice>2</voice>
        <type>quarter</type>
        <dot/>
        <stem>down</stem>
        <staff>1</staff>
      </note>
      <backup>
        <duration>12</duration>
      </backup>
      <note default-x="22">
        <pitch>
          <step>E</step>
          <alter>-1</alter>
          <octave>2</octave>
        </pitch>
        <duration>12</duration>
        <voice>3</voice>
        <type>quarter</type>
        <dot/>
        <accidental>flat</accidental>
        <stem default-y="11">up</stem>
        <staff>2</staff>
      </note>
      <note default-x="22">
        <chord/>
        <pitch>
          <step>B</step>
          <alter>-1</alter>
          <octave>2</octave>
        </pitch>
        <duration>12</duration>
        <voice>3</voice>
        <type>quarter</type>
        <dot/>
        <stem>up</stem>
        <staff>2</staff>
      </note>
      <note default-x="22">
        <chord/>
        <pitch>
          <step>E</step>
          <alter>-1</alter>
          <octave>3</octave>
        </pitch>
        <duration>12</duration>
        <voice>3</voice>
        <type>quarter</type>
        <dot/>
        <accidental>flat</accidental>
        <stem>up</stem>
        <staff>2</staff>
      </note>
    </measure>
    <!--=======================================================-->
    <measure number="24" width="146">
      <note default-x="22">
        <pitch>
          <step>E</step>
          <alter>-1</alter>
          <octave>4</octave>
        </pitch>
        <duration>4</duration>
        <voice>1</voice>
        <type>eighth</type>
        <accidental>flat</accidental>
        <stem default-y="-4">up</stem>
        <staff>1</staff>
        <lyric default-y="-120" number="1">
          <syllabic>end</syllabic>
          <text>re.</text>
        </lyric>
      </note>
      <note default-x="66">
        <rest>
          <display-step>A</display-step>
          <display-octave>4</display-octave>
        </rest>
        <duration>8</duration>
        <voice>1</voice>
        <type>quarter</type>
        <staff>1</staff>
      </note>
      <backup>
        <duration>12</duration>
      </backup>
      <note default-x="22">
        <pitch>
          <step>G</step>
          <octave>3</octave>
        </pitch>
        <duration>4</duration>
        <voice>2</voice>
        <type>eighth</type>
        <stem default-y="-100.5">down</stem>
        <staff>1</staff>
      </note>
      <note default-x="22">
        <chord/>
        <pitch>
          <step>B</step>
          <alter>-1</alter>
          <octave>3</octave>
        </pitch>
        <duration>4</duration>
        <voice>2</voice>
        <type>eighth</type>
        <stem>down</stem>
        <staff>1</staff>
      </note>
      <note default-x="66">
        <rest>
          <display-step>F</display-step>
          <display-octave>3</display-octave>
        </rest>
        <duration>8</duration>
        <voice>2</voice>
        <type>quarter</type>
        <staff>1</staff>
      </note>
      <backup>
        <duration>12</duration>
      </backup>
      <note default-x="22">
        <pitch>
          <step>E</step>
          <alter>-1</alter>
          <octave>2</octave>
        </pitch>
        <duration>4</duration>
        <voice>3</voice>
        <type>eighth</type>
        <accidental>flat</accidental>
        <stem default-y="21">up</stem>
        <staff>2</staff>
      </note>
      <note default-x="22">
        <chord/>
        <pitch>
          <step>B</step>
          <alter>-1</alter>
          <octave>2</octave>
        </pitch>
        <duration>4</duration>
        <voice>3</voice>
        <type>eighth</type>
        <stem>up</stem>
        <staff>2</staff>
      </note>
      <note default-x="22">
        <chord/>
        <pitch>
          <step>E</step>
          <alter>-1</alter>
          <octave>3</octave>
        </pitch>
        <duration>4</duration>
        <voice>3</voice>
        <type>eighth</type>
        <accidental>flat</accidental>
        <stem>up</stem>
        <staff>2</staff>
      </note>
      <note default-x="66">
        <rest/>
        <duration>8</duration>
        <voice>3</voice>
        <type>quarter</type>
        <staff>2</staff>
      </note>
      <barline location="right">
        <bar-style>light-heavy</bar-style>
      </barline>
    </measure>
  </part>
  <!--=========================================================-->
</score-partwise>
